# This file uses centimeters as units for non-parametric coordinates.

mtllib LightLong_GEO_1.mtl
g default
v -0.314220 -4.778563 -0.544245
v 0.314220 -4.778563 -0.544245
v 0.628440 -4.778563 -0.000000
v 0.314220 -4.778563 0.544245
v -0.314220 -4.778563 0.544245
v -0.628440 -4.778563 0.000000
v -0.287043 -5.134042 -0.497173
v 0.287043 -5.134042 -0.497173
v 0.574086 -5.134042 -0.000000
v 0.287043 -5.134042 0.497173
v -0.287043 -5.134042 0.497173
v -0.574086 -5.134042 -0.000000
v -0.228829 -5.134042 -0.396343
v 0.228829 -5.134042 -0.396343
v 0.457658 -5.134042 -0.000000
v 0.228829 -5.134042 0.396343
v -0.228829 -5.134042 0.396343
v -0.457658 -5.134042 -0.000000
v -0.228829 -5.239039 -0.396343
v 0.228829 -5.239039 -0.396343
v 0.457658 -5.239039 -0.000000
v 0.228829 -5.239039 0.396343
v -0.228829 -5.239039 0.396343
v -0.457658 -5.239039 -0.000000
v -0.256431 -5.239039 -0.444152
v 0.256431 -5.239039 -0.444152
v 0.512863 -5.239039 -0.000000
v 0.256431 -5.239039 0.444152
v -0.256431 -5.239039 0.444152
v -0.512863 -5.239039 0.000000
v -0.187857 -5.521063 -0.325378
v 0.187857 -5.521063 -0.325378
v -0.000000 -5.521063 -0.000000
v 0.375714 -5.521063 -0.000000
v 0.187857 -5.521063 0.325378
v -0.187857 -5.521063 0.325378
v -0.375714 -5.521063 -0.000000
v -0.237480 -4.778563 -0.411327
v 0.237480 -4.778563 -0.411328
v 0.474960 -4.778563 -0.000000
v 0.237480 -4.778563 0.411327
v -0.237480 -4.778563 0.411328
v -0.474960 -4.778563 0.000000
v -0.237480 -4.870095 -0.411327
v 0.237480 -4.870095 -0.411328
v 0.000000 -4.870095 0.000000
v 0.474960 -4.870095 -0.000000
v 0.237480 -4.870095 0.411327
v -0.237480 -4.870095 0.411328
v -0.474960 -4.870095 0.000000
vt 0.578125 0.020934
vt 0.421875 0.020934
vt 0.343750 0.156250
vt 0.421875 0.291566
vt 0.578125 0.291566
vt 0.656250 0.156250
vt 0.375000 0.312500
vt 0.416667 0.312500
vt 0.458333 0.312500
vt 0.500000 0.312500
vt 0.541667 0.312500
vt 0.583333 0.312500
vt 0.625000 0.312500
vt 0.375000 0.688440
vt 0.416667 0.688440
vt 0.458333 0.688440
vt 0.500000 0.688440
vt 0.541667 0.688440
vt 0.583333 0.688440
vt 0.625000 0.688440
vt 0.578125 0.708434
vt 0.421875 0.708434
vt 0.343750 0.843750
vt 0.421875 0.979066
vt 0.578125 0.979066
vt 0.656250 0.843750
vt 0.500000 0.150000
vt 0.500000 0.837500
vt 0.578125 0.979066
vt 0.421875 0.979066
vt 0.343750 0.843750
vt 0.421875 0.708434
vt 0.578125 0.708434
vt 0.656250 0.843750
vt 0.578125 0.979066
vt 0.421875 0.979066
vt 0.343750 0.843750
vt 0.421875 0.708434
vt 0.578125 0.708434
vt 0.656250 0.843750
vt 0.578125 0.979066
vt 0.421875 0.979066
vt 0.343750 0.843750
vt 0.421875 0.708434
vt 0.578125 0.708434
vt 0.656250 0.843750
vt 0.578125 0.979066
vt 0.421875 0.979066
vt 0.343750 0.843750
vt 0.421875 0.708434
vt 0.578125 0.708434
vt 0.656250 0.843750
vt 0.421875 0.020934
vt 0.578125 0.020934
vt 0.343750 0.156250
vt 0.421875 0.291566
vt 0.578125 0.291566
vt 0.656250 0.156250
vt 0.421875 0.020934
vt 0.578125 0.020934
vt 0.343750 0.156250
vt 0.421875 0.291566
vt 0.578125 0.291566
vt 0.656250 0.156250
vn -0.000000 -0.131273 -0.991346
vn -0.000000 -0.131273 -0.991346
vn -0.000000 -0.131273 -0.991346
vn -0.000000 -0.131273 -0.991346
vn 0.858531 -0.131273 -0.495673
vn 0.858531 -0.131273 -0.495673
vn 0.858531 -0.131273 -0.495673
vn 0.858531 -0.131273 -0.495673
vn 0.858531 -0.131273 0.495673
vn 0.858531 -0.131273 0.495673
vn 0.858531 -0.131273 0.495673
vn 0.858531 -0.131273 0.495673
vn 0.000000 -0.131273 0.991346
vn 0.000000 -0.131273 0.991346
vn 0.000000 -0.131273 0.991346
vn 0.000000 -0.131273 0.991346
vn -0.858531 -0.131273 0.495673
vn -0.858531 -0.131273 0.495673
vn -0.858531 -0.131273 0.495673
vn -0.858531 -0.131273 0.495673
vn -0.858531 -0.131273 -0.495673
vn -0.858531 -0.131273 -0.495673
vn -0.858531 -0.131273 -0.495673
vn -0.858531 -0.131273 -0.495673
vn 0.000000 1.000000 0.000000
vn 0.000000 1.000000 0.000000
vn 0.000000 1.000000 0.000000
vn 0.000000 1.000000 0.000000
vn 0.000000 1.000000 0.000000
vn 0.000000 1.000000 0.000000
vn 0.000000 1.000000 0.000000
vn -0.000000 -1.000000 -0.000000
vn -0.000000 -1.000000 -0.000000
vn -0.000000 -1.000000 -0.000000
vn -0.000000 -1.000000 0.000000
vn -0.000000 -1.000000 -0.000000
vn -0.000000 -1.000000 -0.000000
vn -0.000000 -1.000000 0.000000
vn -0.000000 -1.000000 -0.000000
vn -0.000000 -1.000000 -0.000000
vn -0.000000 -1.000000 -0.000000
vn -0.000000 -1.000000 -0.000000
vn -0.000000 -1.000000 0.000000
vn -0.000000 -1.000000 0.000000
vn -0.000000 -1.000000 0.000000
vn -0.000000 -1.000000 0.000000
vn -0.000000 -1.000000 0.000000
vn -0.000000 -1.000000 0.000000
vn -0.000000 -1.000000 0.000000
vn -0.000000 -1.000000 0.000000
vn -0.000000 -1.000000 0.000000
vn -0.000000 -1.000000 0.000000
vn -0.000000 -1.000000 0.000000
vn -0.000000 -1.000000 0.000000
vn -0.000000 -1.000000 -0.000000
vn -0.000000 -1.000000 -0.000000
vn -0.000000 -1.000000 -0.000000
vn -0.000000 -1.000000 -0.000000
vn -0.000000 -1.000000 0.000000
vn -0.000000 -1.000000 0.000000
vn -0.000000 -1.000000 0.000000
vn -0.000000 -1.000000 0.000000
vn -0.000000 0.000000 -1.000000
vn -0.000000 0.000000 -1.000000
vn -0.000000 0.000000 -1.000000
vn -0.000000 0.000000 -1.000000
vn 0.866025 -0.000000 -0.500000
vn 0.866025 -0.000000 -0.500000
vn 0.866025 -0.000000 -0.500000
vn 0.866025 -0.000000 -0.500000
vn 0.866026 -0.000000 0.500000
vn 0.866026 -0.000000 0.500000
vn 0.866026 -0.000000 0.500000
vn 0.866026 -0.000000 0.500000
vn 0.000000 -0.000000 1.000000
vn 0.000000 -0.000000 1.000000
vn 0.000000 -0.000000 1.000000
vn 0.000000 -0.000000 1.000000
vn -0.866025 0.000000 0.500000
vn -0.866025 0.000000 0.500000
vn -0.866025 0.000000 0.500000
vn -0.866025 0.000000 0.500000
vn -0.866026 0.000000 -0.500000
vn -0.866026 0.000000 -0.500000
vn -0.866026 0.000000 -0.500000
vn -0.866026 0.000000 -0.500000
vn 0.000000 1.000000 0.000000
vn 0.000000 1.000000 0.000000
vn 0.000000 1.000000 0.000000
vn 0.000000 1.000000 0.000000
vn 0.000000 1.000000 -0.000000
vn 0.000000 1.000000 -0.000000
vn 0.000000 1.000000 -0.000000
vn 0.000000 1.000000 -0.000000
vn 0.000000 1.000000 0.000000
vn 0.000000 1.000000 0.000000
vn 0.000000 1.000000 0.000000
vn 0.000000 1.000000 0.000000
vn 0.000000 1.000000 -0.000000
vn 0.000000 1.000000 -0.000000
vn 0.000000 1.000000 -0.000000
vn 0.000000 1.000000 -0.000000
vn 0.000000 1.000000 -0.000000
vn 0.000000 1.000000 -0.000000
vn 0.000000 1.000000 -0.000000
vn 0.000000 1.000000 -0.000000
vn 0.000000 1.000000 -0.000000
vn 0.000000 1.000000 -0.000000
vn 0.000000 1.000000 -0.000000
vn 0.000000 1.000000 -0.000000
vn -0.000000 -0.388132 -0.921604
vn -0.000000 -0.388132 -0.921604
vn -0.000000 -0.388132 -0.921604
vn -0.000000 -0.388132 -0.921604
vn 0.798132 -0.388132 -0.460802
vn 0.798132 -0.388132 -0.460802
vn 0.798132 -0.388132 -0.460802
vn 0.798132 -0.388132 -0.460802
vn 0.798133 -0.388132 0.460802
vn 0.798133 -0.388132 0.460802
vn 0.798133 -0.388131 0.460802
vn 0.798133 -0.388131 0.460802
vn 0.000000 -0.388131 0.921604
vn 0.000000 -0.388131 0.921604
vn 0.000000 -0.388132 0.921604
vn 0.000000 -0.388132 0.921604
vn -0.798132 -0.388132 0.460802
vn -0.798132 -0.388132 0.460802
vn -0.798133 -0.388132 0.460802
vn -0.798132 -0.388132 0.460802
vn -0.798133 -0.388132 -0.460802
vn -0.798133 -0.388132 -0.460802
vn -0.798132 -0.388132 -0.460802
vn -0.798132 -0.388132 -0.460802
vn 0.000000 1.000000 0.000000
vn 0.000000 1.000000 0.000000
vn 0.000000 1.000000 0.000000
vn 0.000000 1.000000 0.000000
vn 0.000000 1.000000 0.000000
vn 0.000000 1.000000 0.000000
vn 0.000000 1.000000 0.000000
vn 0.000000 1.000000 0.000000
vn 0.000000 1.000000 0.000000
vn 0.000000 1.000000 0.000000
vn 0.000000 1.000000 0.000000
vn 0.000000 1.000000 0.000000
vn 0.000000 1.000000 0.000000
vn 0.000000 1.000000 0.000000
vn 0.000000 1.000000 0.000000
vn 0.000000 1.000000 0.000000
vn 0.000000 1.000000 0.000000
vn 0.000000 1.000000 0.000000
vn 0.000000 1.000000 0.000000
vn 0.000000 1.000000 0.000000
vn 0.000000 1.000000 0.000000
vn 0.000000 1.000000 0.000000
vn 0.000000 1.000000 0.000000
vn 0.000000 1.000000 0.000000
vn 0.000000 -0.000000 1.000000
vn 0.000000 -0.000000 1.000000
vn 0.000000 -0.000000 1.000000
vn 0.000000 -0.000000 1.000000
vn -0.866025 0.000000 0.500000
vn -0.866025 0.000000 0.500000
vn -0.866025 0.000000 0.500000
vn -0.866025 0.000000 0.500000
vn -0.866026 0.000000 -0.500000
vn -0.866026 0.000000 -0.500000
vn -0.866026 0.000000 -0.500000
vn -0.866026 0.000000 -0.500000
vn -0.000000 0.000000 -1.000000
vn -0.000000 0.000000 -1.000000
vn -0.000000 0.000000 -1.000000
vn -0.000000 0.000000 -1.000000
vn 0.866025 -0.000000 -0.500000
vn 0.866025 -0.000000 -0.500000
vn 0.866025 -0.000000 -0.500000
vn 0.866025 -0.000000 -0.500000
vn 0.866026 -0.000000 0.500000
vn 0.866026 -0.000000 0.500000
vn 0.866026 -0.000000 0.500000
vn 0.866026 -0.000000 0.500000
s off
g pCylinder3 Light_GRP
usemtl initialShadingGroup
f 1/7/1 2/8/2 8/15/3 7/14/4
f 2/8/5 3/9/6 9/16/7 8/15/8
f 3/9/9 4/10/10 10/17/11 9/16/12
f 4/10/13 5/11/14 11/18/15 10/17/16
f 5/11/17 6/12/18 12/19/19 11/18/20
f 6/12/21 1/13/22 7/20/23 12/19/24
s 1
f 45/59/25 44/60/26 46/27/27
f 47/61/28 45/59/25 46/27/27
f 48/62/29 47/61/28 46/27/27
f 49/63/30 48/62/29 46/27/27
f 50/64/31 49/63/30 46/27/27
f 44/60/26 50/64/31 46/27/27
s 2
f 31/47/32 32/48/33 33/28/34
f 32/48/33 34/49/35 33/28/34
f 34/49/35 35/50/36 33/28/34
f 35/50/36 36/51/37 33/28/34
f 36/51/37 37/52/38 33/28/34
f 37/52/38 31/47/32 33/28/34
s off
f 7/25/39 8/24/40 14/30/41 13/29/42
f 8/24/43 9/23/44 15/31/45 14/30/46
f 9/23/47 10/22/48 16/32/49 15/31/50
f 10/22/51 11/21/52 17/33/53 16/32/54
f 11/21/55 12/26/56 18/34/57 17/33/58
f 12/26/59 7/25/60 13/29/61 18/34/62
f 13/29/63 14/30/64 20/36/65 19/35/66
f 14/30/67 15/31/68 21/37/69 20/36/70
f 15/31/71 16/32/72 22/38/73 21/37/74
f 16/32/75 17/33/76 23/39/77 22/38/78
f 17/33/79 18/34/80 24/40/81 23/39/82
f 18/34/83 13/29/84 19/35/85 24/40/86
f 19/35/87 20/36/88 26/42/89 25/41/90
f 20/36/91 21/37/92 27/43/93 26/42/94
f 21/37/95 22/38/96 28/44/97 27/43/98
f 22/38/99 23/39/100 29/45/101 28/44/102
f 23/39/103 24/40/104 30/46/105 29/45/106
f 24/40/107 19/35/108 25/41/109 30/46/110
f 25/41/111 26/42/112 32/48/113 31/47/114
f 26/42/115 27/43/116 34/49/117 32/48/118
f 27/43/119 28/44/120 35/50/121 34/49/122
f 28/44/123 29/45/124 36/51/125 35/50/126
f 29/45/127 30/46/128 37/52/129 36/51/130
f 30/46/131 25/41/132 31/47/133 37/52/134
f 2/2/135 1/1/136 38/54/137 39/53/138
f 3/3/139 2/2/140 39/53/141 40/55/142
f 4/4/143 3/3/144 40/55/145 41/56/146
f 5/5/147 4/4/148 41/56/149 42/57/150
f 6/6/151 5/5/152 42/57/153 43/58/154
f 1/1/155 6/6/156 43/58/157 38/54/158
f 39/53/159 38/54/160 44/60/161 45/59/162
f 40/55/163 39/53/164 45/59/165 47/61/166
f 41/56/167 40/55/168 47/61/169 48/62/170
f 42/57/171 41/56/172 48/62/173 49/63/174
f 43/58/175 42/57/176 49/63/177 50/64/178
f 38/54/179 43/58/180 50/64/181 44/60/182
g default
v 0.314220 4.778563 -0.544245
v -0.314220 4.778563 -0.544245
v -0.628440 4.778563 -0.000000
v -0.314220 4.778563 0.544245
v 0.314220 4.778563 0.544245
v 0.628440 4.778563 0.000000
v 0.287043 5.134042 -0.497173
v -0.287043 5.134042 -0.497173
v -0.574086 5.134042 -0.000000
v -0.287043 5.134042 0.497173
v 0.287043 5.134042 0.497173
v 0.574086 5.134042 -0.000000
v 0.228829 5.134042 -0.396343
v -0.228829 5.134042 -0.396343
v -0.457658 5.134042 -0.000000
v -0.228829 5.134042 0.396343
v 0.228829 5.134042 0.396343
v 0.457658 5.134042 -0.000000
v 0.228829 5.239039 -0.396343
v -0.228829 5.239039 -0.396343
v -0.457658 5.239039 -0.000000
v -0.228829 5.239039 0.396343
v 0.228829 5.239039 0.396343
v 0.457658 5.239039 -0.000000
v 0.256431 5.239039 -0.444152
v -0.256431 5.239039 -0.444152
v -0.512863 5.239039 -0.000000
v -0.256431 5.239039 0.444152
v 0.256431 5.239039 0.444152
v 0.512863 5.239039 0.000000
v 0.187857 5.521063 -0.325378
v -0.187857 5.521063 -0.325378
v 0.000000 5.521063 -0.000000
v -0.375714 5.521063 -0.000000
v -0.187857 5.521063 0.325378
v 0.187857 5.521063 0.325378
v 0.375714 5.521063 -0.000000
v 0.237480 4.778563 -0.411327
v -0.237480 4.778563 -0.411328
v -0.474960 4.778563 -0.000000
v -0.237480 4.778563 0.411327
v 0.237480 4.778563 0.411328
v 0.474960 4.778563 0.000000
v 0.237480 4.870095 -0.411327
v -0.237480 4.870095 -0.411328
v 0.000000 4.870095 0.000000
v -0.474960 4.870095 -0.000000
v -0.237480 4.870095 0.411327
v 0.237480 4.870095 0.411328
v 0.474960 4.870095 0.000000
vt 0.578125 0.020934
vt 0.421875 0.020934
vt 0.343750 0.156250
vt 0.421875 0.291566
vt 0.578125 0.291566
vt 0.656250 0.156250
vt 0.375000 0.312500
vt 0.416667 0.312500
vt 0.458333 0.312500
vt 0.500000 0.312500
vt 0.541667 0.312500
vt 0.583333 0.312500
vt 0.625000 0.312500
vt 0.375000 0.688440
vt 0.416667 0.688440
vt 0.458333 0.688440
vt 0.500000 0.688440
vt 0.541667 0.688440
vt 0.583333 0.688440
vt 0.625000 0.688440
vt 0.578125 0.708434
vt 0.421875 0.708434
vt 0.343750 0.843750
vt 0.421875 0.979066
vt 0.578125 0.979066
vt 0.656250 0.843750
vt 0.500000 0.150000
vt 0.500000 0.837500
vt 0.578125 0.979066
vt 0.421875 0.979066
vt 0.343750 0.843750
vt 0.421875 0.708434
vt 0.578125 0.708434
vt 0.656250 0.843750
vt 0.578125 0.979066
vt 0.421875 0.979066
vt 0.343750 0.843750
vt 0.421875 0.708434
vt 0.578125 0.708434
vt 0.656250 0.843750
vt 0.578125 0.979066
vt 0.421875 0.979066
vt 0.343750 0.843750
vt 0.421875 0.708434
vt 0.578125 0.708434
vt 0.656250 0.843750
vt 0.578125 0.979066
vt 0.421875 0.979066
vt 0.343750 0.843750
vt 0.421875 0.708434
vt 0.578125 0.708434
vt 0.656250 0.843750
vt 0.421875 0.020934
vt 0.578125 0.020934
vt 0.343750 0.156250
vt 0.421875 0.291566
vt 0.578125 0.291566
vt 0.656250 0.156250
vt 0.421875 0.020934
vt 0.578125 0.020934
vt 0.343750 0.156250
vt 0.421875 0.291566
vt 0.578125 0.291566
vt 0.656250 0.156250
vn 0.000000 0.131273 -0.991346
vn 0.000000 0.131273 -0.991346
vn 0.000000 0.131273 -0.991346
vn 0.000000 0.131273 -0.991346
vn -0.858531 0.131273 -0.495673
vn -0.858531 0.131273 -0.495673
vn -0.858531 0.131273 -0.495673
vn -0.858531 0.131273 -0.495673
vn -0.858531 0.131273 0.495673
vn -0.858531 0.131273 0.495673
vn -0.858531 0.131273 0.495673
vn -0.858531 0.131273 0.495673
vn -0.000000 0.131273 0.991346
vn -0.000000 0.131273 0.991346
vn -0.000000 0.131273 0.991346
vn -0.000000 0.131273 0.991346
vn 0.858531 0.131273 0.495673
vn 0.858531 0.131273 0.495673
vn 0.858531 0.131273 0.495673
vn 0.858531 0.131273 0.495673
vn 0.858531 0.131273 -0.495673
vn 0.858531 0.131273 -0.495673
vn 0.858531 0.131273 -0.495673
vn 0.858531 0.131273 -0.495673
vn 0.000000 -1.000000 0.000000
vn 0.000000 -1.000000 0.000000
vn 0.000000 -1.000000 0.000000
vn 0.000000 -1.000000 0.000000
vn 0.000000 -1.000000 0.000000
vn 0.000000 -1.000000 0.000000
vn 0.000000 -1.000000 0.000000
vn 0.000000 1.000000 -0.000000
vn 0.000000 1.000000 -0.000000
vn 0.000000 1.000000 -0.000000
vn 0.000000 1.000000 0.000000
vn 0.000000 1.000000 -0.000000
vn 0.000000 1.000000 -0.000000
vn 0.000000 1.000000 0.000000
vn 0.000000 1.000000 -0.000000
vn 0.000000 1.000000 -0.000000
vn 0.000000 1.000000 -0.000000
vn 0.000000 1.000000 -0.000000
vn 0.000000 1.000000 0.000000
vn 0.000000 1.000000 0.000000
vn 0.000000 1.000000 0.000000
vn 0.000000 1.000000 0.000000
vn 0.000000 1.000000 0.000000
vn 0.000000 1.000000 0.000000
vn 0.000000 1.000000 0.000000
vn 0.000000 1.000000 0.000000
vn 0.000000 1.000000 0.000000
vn 0.000000 1.000000 0.000000
vn 0.000000 1.000000 0.000000
vn 0.000000 1.000000 0.000000
vn 0.000000 1.000000 -0.000000
vn 0.000000 1.000000 -0.000000
vn 0.000000 1.000000 -0.000000
vn 0.000000 1.000000 -0.000000
vn 0.000000 1.000000 0.000000
vn 0.000000 1.000000 0.000000
vn 0.000000 1.000000 0.000000
vn 0.000000 1.000000 0.000000
vn 0.000000 0.000000 -1.000000
vn 0.000000 0.000000 -1.000000
vn 0.000000 0.000000 -1.000000
vn 0.000000 0.000000 -1.000000
vn -0.866025 0.000000 -0.500000
vn -0.866025 0.000000 -0.500000
vn -0.866025 0.000000 -0.500000
vn -0.866025 0.000000 -0.500000
vn -0.866026 0.000000 0.500000
vn -0.866026 0.000000 0.500000
vn -0.866026 0.000000 0.500000
vn -0.866026 0.000000 0.500000
vn -0.000000 0.000000 1.000000
vn -0.000000 0.000000 1.000000
vn -0.000000 0.000000 1.000000
vn -0.000000 0.000000 1.000000
vn 0.866025 0.000000 0.500000
vn 0.866025 0.000000 0.500000
vn 0.866025 0.000000 0.500000
vn 0.866025 0.000000 0.500000
vn 0.866026 0.000000 -0.500000
vn 0.866026 0.000000 -0.500000
vn 0.866026 0.000000 -0.500000
vn 0.866026 0.000000 -0.500000
vn 0.000000 -1.000000 0.000000
vn 0.000000 -1.000000 0.000000
vn 0.000000 -1.000000 0.000000
vn 0.000000 -1.000000 0.000000
vn 0.000000 -1.000000 -0.000000
vn 0.000000 -1.000000 -0.000000
vn 0.000000 -1.000000 -0.000000
vn 0.000000 -1.000000 -0.000000
vn 0.000000 -1.000000 0.000000
vn 0.000000 -1.000000 0.000000
vn 0.000000 -1.000000 0.000000
vn 0.000000 -1.000000 0.000000
vn 0.000000 -1.000000 -0.000000
vn 0.000000 -1.000000 -0.000000
vn 0.000000 -1.000000 -0.000000
vn 0.000000 -1.000000 -0.000000
vn 0.000000 -1.000000 -0.000000
vn 0.000000 -1.000000 -0.000000
vn 0.000000 -1.000000 -0.000000
vn 0.000000 -1.000000 -0.000000
vn 0.000000 -1.000000 -0.000000
vn 0.000000 -1.000000 -0.000000
vn 0.000000 -1.000000 -0.000000
vn 0.000000 -1.000000 -0.000000
vn 0.000000 0.388132 -0.921604
vn 0.000000 0.388132 -0.921604
vn 0.000000 0.388132 -0.921604
vn 0.000000 0.388132 -0.921604
vn -0.798132 0.388132 -0.460802
vn -0.798132 0.388132 -0.460802
vn -0.798132 0.388132 -0.460802
vn -0.798132 0.388132 -0.460802
vn -0.798133 0.388132 0.460802
vn -0.798133 0.388132 0.460802
vn -0.798133 0.388131 0.460802
vn -0.798133 0.388131 0.460802
vn -0.000000 0.388131 0.921604
vn -0.000000 0.388131 0.921604
vn -0.000000 0.388132 0.921604
vn -0.000000 0.388132 0.921604
vn 0.798132 0.388132 0.460802
vn 0.798132 0.388132 0.460802
vn 0.798133 0.388132 0.460802
vn 0.798132 0.388132 0.460802
vn 0.798133 0.388132 -0.460802
vn 0.798133 0.388132 -0.460802
vn 0.798132 0.388132 -0.460802
vn 0.798132 0.388132 -0.460802
vn 0.000000 -1.000000 0.000000
vn 0.000000 -1.000000 0.000000
vn 0.000000 -1.000000 0.000000
vn 0.000000 -1.000000 0.000000
vn 0.000000 -1.000000 0.000000
vn 0.000000 -1.000000 0.000000
vn 0.000000 -1.000000 0.000000
vn 0.000000 -1.000000 0.000000
vn 0.000000 -1.000000 0.000000
vn 0.000000 -1.000000 0.000000
vn 0.000000 -1.000000 0.000000
vn 0.000000 -1.000000 0.000000
vn 0.000000 -1.000000 0.000000
vn 0.000000 -1.000000 0.000000
vn 0.000000 -1.000000 0.000000
vn 0.000000 -1.000000 0.000000
vn 0.000000 -1.000000 0.000000
vn 0.000000 -1.000000 0.000000
vn 0.000000 -1.000000 0.000000
vn 0.000000 -1.000000 0.000000
vn 0.000000 -1.000000 0.000000
vn 0.000000 -1.000000 0.000000
vn 0.000000 -1.000000 0.000000
vn 0.000000 -1.000000 0.000000
vn -0.000000 0.000000 1.000000
vn -0.000000 0.000000 1.000000
vn -0.000000 0.000000 1.000000
vn -0.000000 0.000000 1.000000
vn 0.866025 0.000000 0.500000
vn 0.866025 0.000000 0.500000
vn 0.866025 0.000000 0.500000
vn 0.866025 0.000000 0.500000
vn 0.866026 0.000000 -0.500000
vn 0.866026 0.000000 -0.500000
vn 0.866026 0.000000 -0.500000
vn 0.866026 0.000000 -0.500000
vn 0.000000 0.000000 -1.000000
vn 0.000000 0.000000 -1.000000
vn 0.000000 0.000000 -1.000000
vn 0.000000 0.000000 -1.000000
vn -0.866025 0.000000 -0.500000
vn -0.866025 0.000000 -0.500000
vn -0.866025 0.000000 -0.500000
vn -0.866025 0.000000 -0.500000
vn -0.866026 0.000000 0.500000
vn -0.866026 0.000000 0.500000
vn -0.866026 0.000000 0.500000
vn -0.866026 0.000000 0.500000
s off
g Light_GRP pCylinder2
usemtl initialShadingGroup
f 51/71/183 52/72/184 58/79/185 57/78/186
f 52/72/187 53/73/188 59/80/189 58/79/190
f 53/73/191 54/74/192 60/81/193 59/80/194
f 54/74/195 55/75/196 61/82/197 60/81/198
f 55/75/199 56/76/200 62/83/201 61/82/202
f 56/76/203 51/77/204 57/84/205 62/83/206
s 1
f 95/123/207 94/124/208 96/91/209
f 97/125/210 95/123/207 96/91/209
f 98/126/211 97/125/210 96/91/209
f 99/127/212 98/126/211 96/91/209
f 100/128/213 99/127/212 96/91/209
f 94/124/208 100/128/213 96/91/209
s 2
f 81/111/214 82/112/215 83/92/216
f 82/112/215 84/113/217 83/92/216
f 84/113/217 85/114/218 83/92/216
f 85/114/218 86/115/219 83/92/216
f 86/115/219 87/116/220 83/92/216
f 87/116/220 81/111/214 83/92/216
s off
f 57/89/221 58/88/222 64/94/223 63/93/224
f 58/88/225 59/87/226 65/95/227 64/94/228
f 59/87/229 60/86/230 66/96/231 65/95/232
f 60/86/233 61/85/234 67/97/235 66/96/236
f 61/85/237 62/90/238 68/98/239 67/97/240
f 62/90/241 57/89/242 63/93/243 68/98/244
f 63/93/245 64/94/246 70/100/247 69/99/248
f 64/94/249 65/95/250 71/101/251 70/100/252
f 65/95/253 66/96/254 72/102/255 71/101/256
f 66/96/257 67/97/258 73/103/259 72/102/260
f 67/97/261 68/98/262 74/104/263 73/103/264
f 68/98/265 63/93/266 69/99/267 74/104/268
f 69/99/269 70/100/270 76/106/271 75/105/272
f 70/100/273 71/101/274 77/107/275 76/106/276
f 71/101/277 72/102/278 78/108/279 77/107/280
f 72/102/281 73/103/282 79/109/283 78/108/284
f 73/103/285 74/104/286 80/110/287 79/109/288
f 74/104/289 69/99/290 75/105/291 80/110/292
f 75/105/293 76/106/294 82/112/295 81/111/296
f 76/106/297 77/107/298 84/113/299 82/112/300
f 77/107/301 78/108/302 85/114/303 84/113/304
f 78/108/305 79/109/306 86/115/307 85/114/308
f 79/109/309 80/110/310 87/116/311 86/115/312
f 80/110/313 75/105/314 81/111/315 87/116/316
f 52/66/317 51/65/318 88/118/319 89/117/320
f 53/67/321 52/66/322 89/117/323 90/119/324
f 54/68/325 53/67/326 90/119/327 91/120/328
f 55/69/329 54/68/330 91/120/331 92/121/332
f 56/70/333 55/69/334 92/121/335 93/122/336
f 51/65/337 56/70/338 93/122/339 88/118/340
f 89/117/341 88/118/342 94/124/343 95/123/344
f 90/119/345 89/117/346 95/123/347 97/125/348
f 91/120/349 90/119/350 97/125/351 98/126/352
f 92/121/353 91/120/354 98/126/355 99/127/356
f 93/122/357 92/121/358 99/127/359 100/128/360
f 88/118/361 93/122/362 100/128/363 94/124/364
g default
v 0.218179 -4.891189 -0.377897
v -0.218179 -4.891189 -0.377897
v -0.436358 -4.891189 -0.000000
v -0.218179 -4.891189 0.377897
v 0.218179 -4.891189 0.377897
v 0.436358 -4.891189 0.000000
v 0.218179 4.866306 -0.377897
v -0.218179 4.866306 -0.377897
v -0.436358 4.866306 -0.000000
v -0.218179 4.866306 0.377897
v 0.218179 4.866306 0.377897
v 0.436358 4.866306 0.000000
v 0.000000 -4.891189 0.000000
v 0.000000 4.866306 0.000000
vt 0.578125 0.020934
vt 0.421875 0.020934
vt 0.343750 0.156250
vt 0.421875 0.291566
vt 0.578125 0.291566
vt 0.656250 0.156250
vt 0.375000 0.312500
vt 0.416667 0.312500
vt 0.458333 0.312500
vt 0.500000 0.312500
vt 0.541667 0.312500
vt 0.583333 0.312500
vt 0.625000 0.312500
vt 0.375000 0.688440
vt 0.416667 0.688440
vt 0.458333 0.688440
vt 0.500000 0.688440
vt 0.541667 0.688440
vt 0.583333 0.688440
vt 0.625000 0.688440
vt 0.578125 0.708434
vt 0.421875 0.708434
vt 0.343750 0.843750
vt 0.421875 0.979066
vt 0.578125 0.979066
vt 0.656250 0.843750
vt 0.500000 0.150000
vt 0.500000 0.837500
vn 0.000000 0.000000 -1.000000
vn 0.000000 0.000000 -1.000000
vn 0.000000 0.000000 -1.000000
vn 0.000000 0.000000 -1.000000
vn -0.866025 0.000000 -0.500000
vn -0.866025 0.000000 -0.500000
vn -0.866025 0.000000 -0.500000
vn -0.866025 0.000000 -0.500000
vn -0.866026 0.000000 0.500000
vn -0.866026 0.000000 0.500000
vn -0.866026 0.000000 0.500000
vn -0.866026 0.000000 0.500000
vn -0.000000 0.000000 1.000000
vn -0.000000 0.000000 1.000000
vn -0.000000 0.000000 1.000000
vn -0.000000 0.000000 1.000000
vn 0.866025 0.000000 0.500000
vn 0.866025 0.000000 0.500000
vn 0.866025 0.000000 0.500000
vn 0.866025 0.000000 0.500000
vn 0.866026 0.000000 -0.500000
vn 0.866026 0.000000 -0.500000
vn 0.866026 0.000000 -0.500000
vn 0.866026 0.000000 -0.500000
vn 0.000000 -1.000000 0.000000
vn 0.000000 -1.000000 0.000000
vn 0.000000 -1.000000 0.000000
vn 0.000000 -1.000000 0.000000
vn 0.000000 -1.000000 -0.000000
vn 0.000000 -1.000000 -0.000000
vn 0.000000 -1.000000 0.000000
vn 0.000000 1.000000 0.000000
vn 0.000000 1.000000 -0.000000
vn 0.000000 1.000000 0.000000
vn 0.000000 1.000000 -0.000000
vn 0.000000 1.000000 0.000000
vn 0.000000 1.000000 0.000000
vn 0.000000 1.000000 0.000000
s off
g Light_GRP pCylinder1
usemtl initialShadingGroup
f 101/135/365 102/136/366 108/143/367 107/142/368
f 102/136/369 103/137/370 109/144/371 108/143/372
f 103/137/373 104/138/374 110/145/375 109/144/376
f 104/138/377 105/139/378 111/146/379 110/145/380
f 105/139/381 106/140/382 112/147/383 111/146/384
f 106/140/385 101/141/386 107/148/387 112/147/388
s 1
f 102/130/389 101/129/390 113/155/391
f 103/131/392 102/130/389 113/155/391
f 104/132/393 103/131/392 113/155/391
f 105/133/394 104/132/393 113/155/391
f 106/134/395 105/133/394 113/155/391
f 101/129/390 106/134/395 113/155/391
s 2
f 107/153/396 108/152/397 114/156/398
f 108/152/397 109/151/399 114/156/398
f 109/151/399 110/150/400 114/156/398
f 110/150/400 111/149/401 114/156/398
f 111/149/401 112/154/402 114/156/398
f 112/154/402 107/153/396 114/156/398
